<?xml version="1.0" encoding="utf-8"?>
<!-- Generator: Adobe Illustrator 19.0.0, SVG Export Plug-In . SVG Version: 6.00 Build 0)  -->
<svg version="1.1" id="Capa_1" xmlns="http://www.w3.org/2000/svg" xmlns:xlink="http://www.w3.org/1999/xlink" x="0px" y="0px"
	 viewBox="104 -103.4 287.4 287.4" style="enable-background:new 104 -103.4 287.4 287.4;" xml:space="preserve">
<path d="M318.1,41.4c-5.9,0-10.6,4.7-10.6,10.6v98.4c0,5.9,4.7,10.6,10.6,10.6c5.9,0,10.6-4.7,10.6-10.6V52.1
	C328.7,46.2,323.9,41.4,318.1,41.4z"/>
<path d="M381-93.1c-6.7-6.7-17.6-6.7-24.3,0l-48.8,48.8L193.2,70.3l-17.8,17.8L158,105.6L112.5,151c-6.7,6.7-6.7,17.6,0,24.3
	c3.4,3.4,7.8,5,12.2,5c4.4,0,8.8-1.7,12.2-5l45.4-45.4l17.5-17.5l17.8-17.8l90.2-90.2L381-68.8C387.7-75.5,387.7-86.4,381-93.1z"/>
<g>
	<path d="M148,105.6l8.8-8.8V44.3c0.1-0.6,0.2-1.1,0.2-1.7c0-50.4,40.7-91.4,90.7-91.4c15.7,0,30.5,4.1,43.5,11.2l6.7-6.7l16.4-16.4
		c-19.2-12.6-42.1-19.9-66.6-19.9c-66.9,0-121.3,54.2-122.5,121.1C113,44.3,104,55.9,104,69.8v60.9c0,5.5,1.4,10.6,3.8,15L148,105.6
		z"/>
	<path d="M370.1,40.5c-0.4-24.9-8.2-48-21.3-67.2l-23,23c8,13.6,12.5,29.4,12.5,46.3c0,0.8,0.1,1.5,0.2,2.3v116.3h23.4
		c16.3,0,29.4-13.6,29.4-30.5V69.8C391.4,55.9,382.4,44.2,370.1,40.5z"/>
</g>
<g>
	<path d="M183.2,70.3l4.7-4.7V52.1c0-5.9-4.8-10.6-10.6-10.6c-5.9,0-10.6,4.7-10.6,10.6v34.8L183.2,70.3z"/>
	<path d="M167.6,154.6c1.6,3.8,5.4,6.5,9.8,6.5c5.9,0,10.6-4.7,10.6-10.6v-16.3L167.6,154.6z"/>
</g>
</svg>
